<svg width="906" height="267" viewBox="0 0 906 267" fill="none" xmlns="http://www.w3.org/2000/svg">
<rect x="571" y="222" width="326" height="6" rx="3" fill="white"/>
<rect x="571.5" y="222.5" width="325" height="5" rx="2.5" stroke="black" stroke-opacity="0.13"/>
<path d="M73.7633 192L69.7633 172.8H38.9633L34.7633 192H0.363281L33.3633 63.6H75.9633L108.963 192H73.7633ZM44.3633 148H64.3633L54.5633 101.8L44.3633 148ZM175.557 63.6H207.557V192H177.557L148.957 124.6V192H116.957V63.6H146.957L175.557 132.2V63.6ZM288.998 192L284.998 172.8H254.198L249.998 192H215.598L248.598 63.6H291.198L324.198 192H288.998ZM259.598 148H279.598L269.798 101.8L259.598 148ZM390.791 63.6H422.791V192H392.791L364.191 124.6V192H332.191V63.6H362.191L390.791 132.2V63.6ZM516.232 63.6V88.6H491.432V192H456.432V88.6H431.832V63.6H516.232ZM590.56 192L586.56 172.8H555.76L551.56 192H517.16L550.16 63.6H592.76L625.76 192H590.56ZM561.16 148H581.16L571.36 101.8L561.16 148ZM673.793 63.6H708.593V81.6L683.193 126.2H673.793V63.6ZM756.174 93V107.6H721.174V88.4C721.174 71.8667 730.974 63.6 750.574 63.6H774.774C794.641 63.6 804.574 71.8667 804.574 88.4V106.8C804.574 113.467 803.441 119.2 801.174 124C799.041 128.667 795.508 133.733 790.574 139.2L765.774 167H804.574V192H722.174V169.2L760.174 128.4C764.174 124.267 766.841 120.733 768.174 117.8C769.508 114.733 770.174 111 770.174 106.6V93C770.174 90.0667 768.508 88.6 765.174 88.6H761.174C757.841 88.6 756.174 90.0667 756.174 93ZM850.324 93V105.6H815.324V88.4C815.324 71.8667 825.124 63.6 844.724 63.6H869.324C888.924 63.6 898.724 71.8667 898.724 88.4V104C898.724 115.6 895.524 123.133 889.124 126.6C892.858 128.2 895.391 130.667 896.724 134C898.058 137.2 898.724 141.6 898.724 147.2V167.2C898.724 183.733 888.924 192 869.324 192H844.724C825.124 192 815.324 183.733 815.324 167.2V150H850.324V162.6C850.324 165.533 851.991 167 855.324 167H859.324C862.658 167 864.324 165.533 864.324 162.6V142.8C864.324 139.867 862.658 138.4 859.324 138.4H843.124V115.4H859.324C862.658 115.4 864.324 113.933 864.324 111V93C864.324 90.0667 862.658 88.6 859.324 88.6H855.324C851.991 88.6 850.324 90.0667 850.324 93Z" fill="white"/>
<path d="M73.7633 192L72.7843 192.204L72.9501 193H73.7633V192ZM69.7633 172.8L70.7423 172.596L70.5764 171.8H69.7633V172.8ZM38.9633 172.8V171.8H38.1584L37.9864 172.586L38.9633 172.8ZM34.7633 192V193H35.5682L35.7402 192.214L34.7633 192ZM0.363281 192L-0.605243 191.751L-0.926227 193H0.363281V192ZM33.3633 63.6V62.6H32.5878L32.3948 63.3511L33.3633 63.6ZM75.9633 63.6L76.9318 63.3511L76.7388 62.6H75.9633V63.6ZM108.963 192V193H110.253L109.932 191.751L108.963 192ZM44.3633 148L43.3868 147.784L43.1184 149H44.3633V148ZM64.3633 148V149H65.5977L65.3415 147.792L64.3633 148ZM54.5633 101.8L55.5415 101.592L53.5868 101.584L54.5633 101.8ZM74.7423 191.796L70.7423 172.596L68.7843 173.004L72.7843 192.204L74.7423 191.796ZM69.7633 171.8H38.9633V173.8H69.7633V171.8ZM37.9864 172.586L33.7864 191.786L35.7402 192.214L39.9402 173.014L37.9864 172.586ZM34.7633 191H0.363281V193H34.7633V191ZM1.33181 192.249L34.3318 63.8489L32.3948 63.3511L-0.605243 191.751L1.33181 192.249ZM33.3633 64.6H75.9633V62.6H33.3633V64.6ZM74.9948 63.8489L107.995 192.249L109.932 191.751L76.9318 63.3511L74.9948 63.8489ZM108.963 191H73.7633V193H108.963V191ZM44.3633 149H64.3633V147H44.3633V149ZM65.3415 147.792L55.5415 101.592L53.5851 102.007L63.3851 148.208L65.3415 147.792ZM53.5868 101.584L43.3868 147.784L45.3398 148.216L55.5398 102.016L53.5868 101.584ZM175.557 63.6V62.6H174.557V63.6H175.557ZM207.557 63.6H208.557V62.6H207.557V63.6ZM207.557 192V193H208.557V192H207.557ZM177.557 192L176.636 192.391L176.895 193H177.557V192ZM148.957 124.6L149.878 124.209L147.957 124.6H148.957ZM148.957 192V193H149.957V192H148.957ZM116.957 192H115.957V193H116.957V192ZM116.957 63.6V62.6H115.957V63.6H116.957ZM146.957 63.6L147.88 63.2152L147.624 62.6H146.957V63.6ZM175.557 132.2L174.634 132.585L176.557 132.2H175.557ZM175.557 64.6H207.557V62.6H175.557V64.6ZM206.557 63.6V192H208.557V63.6H206.557ZM207.557 191H177.557V193H207.557V191ZM178.478 191.609L149.878 124.209L148.036 124.991L176.636 192.391L178.478 191.609ZM147.957 124.6V192H149.957V124.6H147.957ZM148.957 191H116.957V193H148.957V191ZM117.957 192V63.6H115.957V192H117.957ZM116.957 64.6H146.957V62.6H116.957V64.6ZM146.034 63.9848L174.634 132.585L176.48 131.815L147.88 63.2152L146.034 63.9848ZM176.557 132.2V63.6H174.557V132.2H176.557ZM288.998 192L288.019 192.204L288.185 193H288.998V192ZM284.998 172.8L285.977 172.596L285.811 171.8H284.998V172.8ZM254.198 172.8V171.8H253.393L253.221 172.586L254.198 172.8ZM249.998 192V193H250.803L250.975 192.214L249.998 192ZM215.598 192L214.629 191.751L214.308 193H215.598V192ZM248.598 63.6V62.6H247.822L247.629 63.3511L248.598 63.6ZM291.198 63.6L292.166 63.3511L291.973 62.6H291.198V63.6ZM324.198 192V193H325.487L325.166 191.751L324.198 192ZM259.598 148L258.621 147.784L258.353 149H259.598V148ZM279.598 148V149H280.832L280.576 147.792L279.598 148ZM269.798 101.8L270.776 101.592L268.821 101.584L269.798 101.8ZM289.977 191.796L285.977 172.596L284.019 173.004L288.019 192.204L289.977 191.796ZM284.998 171.8H254.198V173.8H284.998V171.8ZM253.221 172.586L249.021 191.786L250.975 192.214L255.175 173.014L253.221 172.586ZM249.998 191H215.598V193H249.998V191ZM216.566 192.249L249.566 63.8489L247.629 63.3511L214.629 191.751L216.566 192.249ZM248.598 64.6H291.198V62.6H248.598V64.6ZM290.229 63.8489L323.229 192.249L325.166 191.751L292.166 63.3511L290.229 63.8489ZM324.198 191H288.998V193H324.198V191ZM259.598 149H279.598V147H259.598V149ZM280.576 147.792L270.776 101.592L268.819 102.007L278.619 148.208L280.576 147.792ZM268.821 101.584L258.621 147.784L260.574 148.216L270.774 102.016L268.821 101.584ZM390.791 63.6V62.6H389.791V63.6H390.791ZM422.791 63.6H423.791V62.6H422.791V63.6ZM422.791 192V193H423.791V192H422.791ZM392.791 192L391.871 192.391L392.129 193H392.791V192ZM364.191 124.6L365.112 124.209L363.191 124.6H364.191ZM364.191 192V193H365.191V192H364.191ZM332.191 192H331.191V193H332.191V192ZM332.191 63.6V62.6H331.191V63.6H332.191ZM362.191 63.6L363.114 63.2152L362.858 62.6H362.191V63.6ZM390.791 132.2L389.868 132.585L391.791 132.2H390.791ZM390.791 64.6H422.791V62.6H390.791V64.6ZM421.791 63.6V192H423.791V63.6H421.791ZM422.791 191H392.791V193H422.791V191ZM393.712 191.609L365.112 124.209L363.271 124.991L391.871 192.391L393.712 191.609ZM363.191 124.6V192H365.191V124.6H363.191ZM364.191 191H332.191V193H364.191V191ZM333.191 192V63.6H331.191V192H333.191ZM332.191 64.6H362.191V62.6H332.191V64.6ZM361.268 63.9848L389.868 132.585L391.714 131.815L363.114 63.2152L361.268 63.9848ZM391.791 132.2V63.6H389.791V132.2H391.791ZM516.232 63.6H517.232V62.6H516.232V63.6ZM516.232 88.6V89.6H517.232V88.6H516.232ZM491.432 88.6V87.6H490.432V88.6H491.432ZM491.432 192V193H492.432V192H491.432ZM456.432 192H455.432V193H456.432V192ZM456.432 88.6H457.432V87.6H456.432V88.6ZM431.832 88.6H430.832V89.6H431.832V88.6ZM431.832 63.6V62.6H430.832V63.6H431.832ZM515.232 63.6V88.6H517.232V63.6H515.232ZM516.232 87.6H491.432V89.6H516.232V87.6ZM490.432 88.6V192H492.432V88.6H490.432ZM491.432 191H456.432V193H491.432V191ZM457.432 192V88.6H455.432V192H457.432ZM456.432 87.6H431.832V89.6H456.432V87.6ZM432.832 88.6V63.6H430.832V88.6H432.832ZM431.832 64.6H516.232V62.6H431.832V64.6ZM590.56 192L589.581 192.204L589.747 193H590.56V192ZM586.56 172.8L587.539 172.596L587.373 171.8H586.56V172.8ZM555.76 172.8V171.8H554.955L554.783 172.586L555.76 172.8ZM551.56 192V193H552.365L552.537 192.214L551.56 192ZM517.16 192L516.192 191.751L515.871 193H517.16V192ZM550.16 63.6V62.6H549.385L549.192 63.3511L550.16 63.6ZM592.76 63.6L593.729 63.3511L593.536 62.6H592.76V63.6ZM625.76 192V193H627.05L626.729 191.751L625.76 192ZM561.16 148L560.184 147.784L559.915 149H561.16V148ZM581.16 148V149H582.395L582.138 147.792L581.16 148ZM571.36 101.8L572.338 101.592L570.384 101.584L571.36 101.8ZM591.539 191.796L587.539 172.596L585.581 173.004L589.581 192.204L591.539 191.796ZM586.56 171.8H555.76V173.8H586.56V171.8ZM554.783 172.586L550.583 191.786L552.537 192.214L556.737 173.014L554.783 172.586ZM551.56 191H517.16V193H551.56V191ZM518.129 192.249L551.129 63.8489L549.192 63.3511L516.192 191.751L518.129 192.249ZM550.16 64.6H592.76V62.6H550.16V64.6ZM591.792 63.8489L624.792 192.249L626.729 191.751L593.729 63.3511L591.792 63.8489ZM625.76 191H590.56V193H625.76V191ZM561.16 149H581.16V147H561.16V149ZM582.138 147.792L572.338 101.592L570.382 102.007L580.182 148.208L582.138 147.792ZM570.384 101.584L560.184 147.784L562.137 148.216L572.337 102.016L570.384 101.584ZM673.793 63.6V62.6H672.793V63.6H673.793ZM708.593 63.6H709.593V62.6H708.593V63.6ZM708.593 81.6L709.462 82.0949L709.593 81.8648V81.6H708.593ZM683.193 126.2V127.2H683.774L684.062 126.695L683.193 126.2ZM673.793 126.2H672.793V127.2H673.793V126.2ZM673.793 64.6H708.593V62.6H673.793V64.6ZM707.593 63.6V81.6H709.593V63.6H707.593ZM707.724 81.1051L682.324 125.705L684.062 126.695L709.462 82.0949L707.724 81.1051ZM683.193 125.2H673.793V127.2H683.193V125.2ZM674.793 126.2V63.6H672.793V126.2H674.793ZM756.174 107.6V108.6H757.174V107.6H756.174ZM721.174 107.6H720.174V108.6H721.174V107.6ZM801.174 124L800.27 123.573L800.265 123.584L801.174 124ZM790.574 139.2L789.832 138.53L789.828 138.534L790.574 139.2ZM765.774 167L765.028 166.334L763.542 168H765.774V167ZM804.574 167H805.574V166H804.574V167ZM804.574 192V193H805.574V192H804.574ZM722.174 192H721.174V193H722.174V192ZM722.174 169.2L721.442 168.518L721.174 168.806V169.2H722.174ZM760.174 128.4L759.456 127.705L759.449 127.711L759.442 127.718L760.174 128.4ZM768.174 117.8L769.085 118.214L769.088 118.206L769.091 118.199L768.174 117.8ZM755.174 93V107.6H757.174V93H755.174ZM756.174 106.6H721.174V108.6H756.174V106.6ZM722.174 107.6V88.4H720.174V107.6H722.174ZM722.174 88.4C722.174 80.3363 724.556 74.4556 729.169 70.5644C733.815 66.6457 740.891 64.6 750.574 64.6V62.6C740.658 62.6 733.034 64.6877 727.879 69.0356C722.692 73.4111 720.174 79.9304 720.174 88.4H722.174ZM750.574 64.6H774.774V62.6H750.574V64.6ZM774.774 64.6C784.594 64.6 791.772 66.6467 796.485 70.5686C801.162 74.4613 803.574 80.3407 803.574 88.4H805.574C805.574 79.926 803.02 73.4054 797.764 69.0314C792.543 64.6866 784.822 62.6 774.774 62.6V64.6ZM803.574 88.4V106.8H805.574V88.4H803.574ZM803.574 106.8C803.574 113.356 802.46 118.936 800.27 123.573L802.078 124.427C804.422 119.464 805.574 113.578 805.574 106.8H803.574ZM800.265 123.584C798.188 128.127 794.724 133.109 789.832 138.53L791.317 139.87C796.291 134.358 799.894 129.206 802.084 124.416L800.265 123.584ZM789.828 138.534L765.028 166.334L766.52 167.666L791.32 139.866L789.828 138.534ZM765.774 168H804.574V166H765.774V168ZM803.574 167V192H805.574V167H803.574ZM804.574 191H722.174V193H804.574V191ZM723.174 192V169.2H721.174V192H723.174ZM722.906 169.882L760.906 129.082L759.442 127.718L721.442 168.518L722.906 169.882ZM760.893 129.095C764.92 124.934 767.68 121.303 769.085 118.214L767.264 117.386C766.001 120.164 763.428 123.599 759.456 127.705L760.893 129.095ZM769.091 118.199C770.494 114.973 771.174 111.096 771.174 106.6H769.174C769.174 110.904 768.521 114.493 767.257 117.401L769.091 118.199ZM771.174 106.6V93H769.174V106.6H771.174ZM771.174 93C771.174 91.3436 770.698 89.9287 769.585 88.9493C768.496 87.9914 766.966 87.6 765.174 87.6V89.6C766.716 89.6 767.685 89.9419 768.264 90.4507C768.817 90.938 769.174 91.723 769.174 93H771.174ZM765.174 87.6H761.174V89.6H765.174V87.6ZM761.174 87.6C759.383 87.6 757.852 87.9914 756.764 88.9493C755.651 89.9287 755.174 91.3436 755.174 93H757.174C757.174 91.723 757.531 90.938 758.085 90.4507C758.663 89.9419 759.633 89.6 761.174 89.6V87.6ZM850.324 105.6V106.6H851.324V105.6H850.324ZM815.324 105.6H814.324V106.6H815.324V105.6ZM889.124 126.6L888.648 125.721L886.831 126.705L888.73 127.519L889.124 126.6ZM896.724 134L895.796 134.371L895.798 134.378L895.801 134.385L896.724 134ZM815.324 150V149H814.324V150H815.324ZM850.324 150H851.324V149H850.324V150ZM843.124 138.4H842.124V139.4H843.124V138.4ZM843.124 115.4V114.4H842.124V115.4H843.124ZM849.324 93V105.6H851.324V93H849.324ZM850.324 104.6H815.324V106.6H850.324V104.6ZM816.324 105.6V88.4H814.324V105.6H816.324ZM816.324 88.4C816.324 80.3363 818.706 74.4556 823.319 70.5644C827.965 66.6457 835.041 64.6 844.724 64.6V62.6C834.808 62.6 827.184 64.6877 822.029 69.0356C816.842 73.4111 814.324 79.9304 814.324 88.4H816.324ZM844.724 64.6H869.324V62.6H844.724V64.6ZM869.324 64.6C879.008 64.6 886.084 66.6457 890.729 70.5644C895.342 74.4556 897.724 80.3363 897.724 88.4H899.724C899.724 79.9304 897.206 73.4111 892.019 69.0356C886.865 64.6877 879.241 62.6 869.324 62.6V64.6ZM897.724 88.4V104H899.724V88.4H897.724ZM897.724 104C897.724 115.467 894.562 122.517 888.648 125.721L889.601 127.479C896.487 123.749 899.724 115.733 899.724 104H897.724ZM888.73 127.519C892.255 129.03 894.574 131.317 895.796 134.371L897.653 133.629C896.208 130.016 893.46 127.37 889.518 125.681L888.73 127.519ZM895.801 134.385C897.062 137.411 897.724 141.661 897.724 147.2H899.724C899.724 141.539 899.053 136.989 897.647 133.615L895.801 134.385ZM897.724 147.2V167.2H899.724V147.2H897.724ZM897.724 167.2C897.724 175.264 895.342 181.144 890.729 185.036C886.084 188.954 879.008 191 869.324 191V193C879.241 193 886.865 190.912 892.019 186.564C897.206 182.189 899.724 175.67 899.724 167.2H897.724ZM869.324 191H844.724V193H869.324V191ZM844.724 191C835.041 191 827.965 188.954 823.319 185.036C818.706 181.144 816.324 175.264 816.324 167.2H814.324C814.324 175.67 816.842 182.189 822.029 186.564C827.184 190.912 834.808 193 844.724 193V191ZM816.324 167.2V150H814.324V167.2H816.324ZM815.324 151H850.324V149H815.324V151ZM849.324 150V162.6H851.324V150H849.324ZM849.324 162.6C849.324 164.256 849.801 165.671 850.914 166.651C852.002 167.609 853.533 168 855.324 168V166C853.783 166 852.813 165.658 852.235 165.149C851.681 164.662 851.324 163.877 851.324 162.6H849.324ZM855.324 168H859.324V166H855.324V168ZM859.324 168C861.116 168 862.646 167.609 863.735 166.651C864.848 165.671 865.324 164.256 865.324 162.6H863.324C863.324 163.877 862.967 164.662 862.414 165.149C861.835 165.658 860.866 166 859.324 166V168ZM865.324 162.6V142.8H863.324V162.6H865.324ZM865.324 142.8C865.324 141.144 864.848 139.729 863.735 138.749C862.646 137.791 861.116 137.4 859.324 137.4V139.4C860.866 139.4 861.835 139.742 862.414 140.251C862.967 140.738 863.324 141.523 863.324 142.8H865.324ZM859.324 137.4H843.124V139.4H859.324V137.4ZM844.124 138.4V115.4H842.124V138.4H844.124ZM843.124 116.4H859.324V114.4H843.124V116.4ZM859.324 116.4C861.116 116.4 862.646 116.009 863.735 115.051C864.848 114.071 865.324 112.656 865.324 111H863.324C863.324 112.277 862.967 113.062 862.414 113.549C861.835 114.058 860.866 114.4 859.324 114.4V116.4ZM865.324 111V93H863.324V111H865.324ZM865.324 93C865.324 91.3436 864.848 89.9287 863.735 88.9493C862.646 87.9914 861.116 87.6 859.324 87.6V89.6C860.866 89.6 861.835 89.9419 862.414 90.4507C862.967 90.938 863.324 91.723 863.324 93H865.324ZM859.324 87.6H855.324V89.6H859.324V87.6ZM855.324 87.6C853.533 87.6 852.002 87.9914 850.914 88.9493C849.801 89.9287 849.324 91.3436 849.324 93H851.324C851.324 91.723 851.681 90.938 852.235 90.4507C852.813 89.9419 853.783 89.6 855.324 89.6V87.6Z" fill="black" fill-opacity="0.33"/>
<rect y="222" width="292" height="6" rx="3" fill="white" fill-opacity="0.96"/>
<rect x="0.5" y="222.5" width="291" height="5" rx="2.5" stroke="black" stroke-opacity="0.12"/>
<mask id="path-7-inside-1_488_21" fill="white">
<path fill-rule="evenodd" clip-rule="evenodd" d="M253 213C248.029 213 244 217.029 244 222C244 246.853 264.147 267 289 267H575C599.853 267 620 246.853 620 222C620 217.029 615.971 213 611 213H253ZM312.789 231.694H322.064V225.546C322.064 221.165 319.467 218.974 314.273 218.974H306.8C301.606 218.974 299.009 221.165 299.009 225.546V246.428C299.009 250.809 301.606 253 306.8 253H314.273C319.467 253 322.064 250.809 322.064 246.428V240.492H312.789V245.739C312.789 246.516 312.348 246.905 311.464 246.905H309.609C308.726 246.905 308.284 246.516 308.284 245.739V226.235C308.284 225.458 308.726 225.069 309.609 225.069H311.464C312.348 225.069 312.789 225.458 312.789 226.235V231.694ZM339.508 226.553H332.777C330.091 226.553 328.166 227.118 327 228.249C325.834 229.38 325.251 231.005 325.251 233.125V246.428C325.251 248.548 325.834 250.173 327 251.304C328.166 252.435 330.091 253 332.777 253H339.508C342.193 253 344.119 252.435 345.285 251.304C346.451 250.173 347.034 248.548 347.034 246.428V233.125C347.034 231.005 346.451 229.38 345.285 228.249C344.119 227.118 342.193 226.553 339.508 226.553ZM338.183 233.973V245.58C338.183 246.357 337.741 246.746 336.858 246.746H335.427C334.543 246.746 334.102 246.357 334.102 245.58V233.973C334.102 233.196 334.543 232.807 335.427 232.807H336.858C337.741 232.807 338.183 233.196 338.183 233.973ZM378.327 226.553H377.373C376.066 226.553 374.935 226.853 373.981 227.454C373.027 228.055 372.409 228.867 372.126 229.892C371.101 227.666 368.946 226.553 365.66 226.553H364.706C361.985 226.553 360.378 227.684 359.883 229.945V226.553H351.032V253H360.042V234.768C360.042 233.708 360.519 233.178 361.473 233.178H362.374C363.257 233.178 363.699 233.567 363.699 234.344V253H372.709V234.768C372.709 233.708 373.186 233.178 374.14 233.178H375.041C375.924 233.178 376.366 233.567 376.366 234.344V253H385.376V233.125C385.376 228.744 383.026 226.553 378.327 226.553ZM389.174 217.543V223.903H398.502V217.543H389.174ZM389.333 253H398.343V226.553H389.333V253ZM417.211 226.553H416.257C413.536 226.553 411.929 227.684 411.434 229.945V226.553H402.583V253H411.593V234.768C411.593 233.708 412.07 233.178 413.024 233.178H413.925C414.808 233.178 415.25 233.567 415.25 234.344V253H424.26V233.125C424.26 228.744 421.91 226.553 417.211 226.553ZM449.402 226.553H440.551V229.945C440.056 227.684 438.448 226.553 435.728 226.553H434.774C430.074 226.553 427.725 228.744 427.725 233.125V244.838C427.725 249.219 430.074 251.41 434.774 251.41H435.728C438.166 251.41 439.72 250.456 440.392 248.548V252.311C440.392 253.088 439.95 253.477 439.067 253.477H428.944V259.837H441.611C446.805 259.837 449.402 257.646 449.402 253.265V226.553ZM438.961 244.785H438.06C437.176 244.785 436.735 244.396 436.735 243.619V234.344C436.735 233.567 437.176 233.178 438.06 233.178H438.961C439.915 233.178 440.392 233.708 440.392 234.768V243.195C440.392 244.255 439.915 244.785 438.961 244.785ZM477.264 240.386V245.209C477.264 245.986 476.823 246.375 475.939 246.375H474.402C473.519 246.375 473.077 245.986 473.077 245.209V242.347H463.802V246.428C463.802 250.809 466.399 253 471.593 253H478.801C483.96 253 486.539 250.809 486.539 246.428V239.432C486.539 237.312 485.974 235.704 484.843 234.609C483.748 233.514 481.893 232.966 479.278 232.966H474.296C473.413 232.966 472.971 232.577 472.971 231.8V226.765C472.971 225.988 473.413 225.599 474.296 225.599H475.833C476.717 225.599 477.158 225.988 477.158 226.765V229.627H486.433V225.546C486.433 221.165 483.854 218.974 478.695 218.974H471.434C466.276 218.974 463.696 221.165 463.696 225.546V232.542C463.696 234.697 464.226 236.358 465.286 237.524C466.382 238.655 468.237 239.22 470.851 239.22H475.939C476.823 239.22 477.264 239.609 477.264 240.386ZM504.253 226.553H497.522C494.836 226.553 492.911 227.118 491.745 228.249C490.579 229.38 489.996 231.005 489.996 233.125V246.428C489.996 248.548 490.579 250.173 491.745 251.304C492.911 252.435 494.836 253 497.522 253H504.253C506.938 253 508.864 252.435 510.03 251.304C511.196 250.173 511.779 248.548 511.779 246.428V233.125C511.779 231.005 511.196 229.38 510.03 228.249C508.864 227.118 506.938 226.553 504.253 226.553ZM502.928 233.973V245.58C502.928 246.357 502.486 246.746 501.603 246.746H500.172C499.288 246.746 498.847 246.357 498.847 245.58V233.973C498.847 233.196 499.288 232.807 500.172 232.807H501.603C502.486 232.807 502.928 233.196 502.928 233.973ZM529.769 226.553H523.038C520.353 226.553 518.427 227.118 517.261 228.249C516.095 229.38 515.512 231.005 515.512 233.125V246.428C515.512 248.548 516.095 250.173 517.261 251.304C518.427 252.435 520.353 253 523.038 253H529.769C532.455 253 534.38 252.435 535.546 251.304C536.712 250.173 537.295 248.548 537.295 246.428V233.125C537.295 231.005 536.712 229.38 535.546 228.249C534.38 227.118 532.455 226.553 529.769 226.553ZM528.444 233.973V245.58C528.444 246.357 528.003 246.746 527.119 246.746H525.688C524.805 246.746 524.363 246.357 524.363 245.58V233.973C524.363 233.196 524.805 232.807 525.688 232.807H527.119C528.003 232.807 528.444 233.196 528.444 233.973ZM555.922 226.553H554.968C552.247 226.553 550.639 227.684 550.145 229.945V226.553H541.294V253H550.304V234.768C550.304 233.708 550.781 233.178 551.735 233.178H552.636C553.519 233.178 553.961 233.567 553.961 234.344V253H562.971V233.125C562.971 228.744 560.621 226.553 555.922 226.553Z"/>
</mask>
<path fill-rule="evenodd" clip-rule="evenodd" d="M253 213C248.029 213 244 217.029 244 222C244 246.853 264.147 267 289 267H575C599.853 267 620 246.853 620 222C620 217.029 615.971 213 611 213H253ZM312.789 231.694H322.064V225.546C322.064 221.165 319.467 218.974 314.273 218.974H306.8C301.606 218.974 299.009 221.165 299.009 225.546V246.428C299.009 250.809 301.606 253 306.8 253H314.273C319.467 253 322.064 250.809 322.064 246.428V240.492H312.789V245.739C312.789 246.516 312.348 246.905 311.464 246.905H309.609C308.726 246.905 308.284 246.516 308.284 245.739V226.235C308.284 225.458 308.726 225.069 309.609 225.069H311.464C312.348 225.069 312.789 225.458 312.789 226.235V231.694ZM339.508 226.553H332.777C330.091 226.553 328.166 227.118 327 228.249C325.834 229.38 325.251 231.005 325.251 233.125V246.428C325.251 248.548 325.834 250.173 327 251.304C328.166 252.435 330.091 253 332.777 253H339.508C342.193 253 344.119 252.435 345.285 251.304C346.451 250.173 347.034 248.548 347.034 246.428V233.125C347.034 231.005 346.451 229.38 345.285 228.249C344.119 227.118 342.193 226.553 339.508 226.553ZM338.183 233.973V245.58C338.183 246.357 337.741 246.746 336.858 246.746H335.427C334.543 246.746 334.102 246.357 334.102 245.58V233.973C334.102 233.196 334.543 232.807 335.427 232.807H336.858C337.741 232.807 338.183 233.196 338.183 233.973ZM378.327 226.553H377.373C376.066 226.553 374.935 226.853 373.981 227.454C373.027 228.055 372.409 228.867 372.126 229.892C371.101 227.666 368.946 226.553 365.66 226.553H364.706C361.985 226.553 360.378 227.684 359.883 229.945V226.553H351.032V253H360.042V234.768C360.042 233.708 360.519 233.178 361.473 233.178H362.374C363.257 233.178 363.699 233.567 363.699 234.344V253H372.709V234.768C372.709 233.708 373.186 233.178 374.14 233.178H375.041C375.924 233.178 376.366 233.567 376.366 234.344V253H385.376V233.125C385.376 228.744 383.026 226.553 378.327 226.553ZM389.174 217.543V223.903H398.502V217.543H389.174ZM389.333 253H398.343V226.553H389.333V253ZM417.211 226.553H416.257C413.536 226.553 411.929 227.684 411.434 229.945V226.553H402.583V253H411.593V234.768C411.593 233.708 412.07 233.178 413.024 233.178H413.925C414.808 233.178 415.25 233.567 415.25 234.344V253H424.26V233.125C424.26 228.744 421.91 226.553 417.211 226.553ZM449.402 226.553H440.551V229.945C440.056 227.684 438.448 226.553 435.728 226.553H434.774C430.074 226.553 427.725 228.744 427.725 233.125V244.838C427.725 249.219 430.074 251.41 434.774 251.41H435.728C438.166 251.41 439.72 250.456 440.392 248.548V252.311C440.392 253.088 439.95 253.477 439.067 253.477H428.944V259.837H441.611C446.805 259.837 449.402 257.646 449.402 253.265V226.553ZM438.961 244.785H438.06C437.176 244.785 436.735 244.396 436.735 243.619V234.344C436.735 233.567 437.176 233.178 438.06 233.178H438.961C439.915 233.178 440.392 233.708 440.392 234.768V243.195C440.392 244.255 439.915 244.785 438.961 244.785ZM477.264 240.386V245.209C477.264 245.986 476.823 246.375 475.939 246.375H474.402C473.519 246.375 473.077 245.986 473.077 245.209V242.347H463.802V246.428C463.802 250.809 466.399 253 471.593 253H478.801C483.96 253 486.539 250.809 486.539 246.428V239.432C486.539 237.312 485.974 235.704 484.843 234.609C483.748 233.514 481.893 232.966 479.278 232.966H474.296C473.413 232.966 472.971 232.577 472.971 231.8V226.765C472.971 225.988 473.413 225.599 474.296 225.599H475.833C476.717 225.599 477.158 225.988 477.158 226.765V229.627H486.433V225.546C486.433 221.165 483.854 218.974 478.695 218.974H471.434C466.276 218.974 463.696 221.165 463.696 225.546V232.542C463.696 234.697 464.226 236.358 465.286 237.524C466.382 238.655 468.237 239.22 470.851 239.22H475.939C476.823 239.22 477.264 239.609 477.264 240.386ZM504.253 226.553H497.522C494.836 226.553 492.911 227.118 491.745 228.249C490.579 229.38 489.996 231.005 489.996 233.125V246.428C489.996 248.548 490.579 250.173 491.745 251.304C492.911 252.435 494.836 253 497.522 253H504.253C506.938 253 508.864 252.435 510.03 251.304C511.196 250.173 511.779 248.548 511.779 246.428V233.125C511.779 231.005 511.196 229.38 510.03 228.249C508.864 227.118 506.938 226.553 504.253 226.553ZM502.928 233.973V245.58C502.928 246.357 502.486 246.746 501.603 246.746H500.172C499.288 246.746 498.847 246.357 498.847 245.58V233.973C498.847 233.196 499.288 232.807 500.172 232.807H501.603C502.486 232.807 502.928 233.196 502.928 233.973ZM529.769 226.553H523.038C520.353 226.553 518.427 227.118 517.261 228.249C516.095 229.38 515.512 231.005 515.512 233.125V246.428C515.512 248.548 516.095 250.173 517.261 251.304C518.427 252.435 520.353 253 523.038 253H529.769C532.455 253 534.38 252.435 535.546 251.304C536.712 250.173 537.295 248.548 537.295 246.428V233.125C537.295 231.005 536.712 229.38 535.546 228.249C534.38 227.118 532.455 226.553 529.769 226.553ZM528.444 233.973V245.58C528.444 246.357 528.003 246.746 527.119 246.746H525.688C524.805 246.746 524.363 246.357 524.363 245.58V233.973C524.363 233.196 524.805 232.807 525.688 232.807H527.119C528.003 232.807 528.444 233.196 528.444 233.973ZM555.922 226.553H554.968C552.247 226.553 550.639 227.684 550.145 229.945V226.553H541.294V253H550.304V234.768C550.304 233.708 550.781 233.178 551.735 233.178H552.636C553.519 233.178 553.961 233.567 553.961 234.344V253H562.971V233.125C562.971 228.744 560.621 226.553 555.922 226.553Z" fill="white"/>
<path d="M322.064 231.694V232.694H323.064V231.694H322.064ZM312.789 231.694H311.789V232.694H312.789V231.694ZM322.064 240.492H323.064V239.492H322.064V240.492ZM312.789 240.492V239.492H311.789V240.492H312.789ZM327 228.249L327.696 228.967L327.696 228.967L327 228.249ZM327 251.304L327.696 250.586L327.696 250.586L327 251.304ZM345.285 251.304L345.981 252.022L345.981 252.022L345.285 251.304ZM345.285 228.249L344.588 228.967L344.588 228.967L345.285 228.249ZM372.126 229.892L371.218 230.31L372.362 232.796L373.09 230.158L372.126 229.892ZM359.883 229.945H358.883L360.86 230.159L359.883 229.945ZM359.883 226.553H360.883V225.553H359.883V226.553ZM351.032 226.553V225.553H350.032V226.553H351.032ZM351.032 253H350.032V254H351.032V253ZM360.042 253V254H361.042V253H360.042ZM363.699 253H362.699V254H363.699V253ZM372.709 253V254H373.709V253H372.709ZM376.366 253H375.366V254H376.366V253ZM385.376 253V254H386.376V253H385.376ZM389.174 223.903H388.174V224.903H389.174V223.903ZM389.174 217.543V216.543H388.174V217.543H389.174ZM398.502 223.903V224.903H399.502V223.903H398.502ZM398.502 217.543H399.502V216.543H398.502V217.543ZM398.343 253V254H399.343V253H398.343ZM389.333 253H388.333V254H389.333V253ZM398.343 226.553H399.343V225.553H398.343V226.553ZM389.333 226.553V225.553H388.333V226.553H389.333ZM411.434 229.945H410.434L412.411 230.159L411.434 229.945ZM411.434 226.553H412.434V225.553H411.434V226.553ZM402.583 226.553V225.553H401.583V226.553H402.583ZM402.583 253H401.583V254H402.583V253ZM411.593 253V254H412.593V253H411.593ZM415.25 253H414.25V254H415.25V253ZM424.26 253V254H425.26V253H424.26ZM440.551 226.553V225.553H439.551V226.553H440.551ZM449.402 226.553H450.402V225.553H449.402V226.553ZM440.551 229.945L439.574 230.159L441.551 229.945H440.551ZM440.392 248.548H441.392L439.448 248.216L440.392 248.548ZM428.944 253.477V252.477H427.944V253.477H428.944ZM428.944 259.837H427.944V260.837H428.944V259.837ZM473.077 242.347H474.077V241.347H473.077V242.347ZM463.802 242.347V241.347H462.802V242.347H463.802ZM484.843 234.609L484.136 235.316L484.142 235.322L484.148 235.327L484.843 234.609ZM477.158 229.627H476.158V230.627H477.158V229.627ZM486.433 229.627V230.627H487.433V229.627H486.433ZM465.286 237.524L464.546 238.197L464.557 238.208L464.568 238.22L465.286 237.524ZM491.745 228.249L492.441 228.967L492.441 228.967L491.745 228.249ZM491.745 251.304L491.048 252.022L491.048 252.022L491.745 251.304ZM510.03 251.304L510.726 252.022L510.726 252.022L510.03 251.304ZM510.03 228.249L510.726 227.531L510.726 227.531L510.03 228.249ZM517.261 228.249L517.957 228.967L517.957 228.967L517.261 228.249ZM517.261 251.304L517.957 250.586L517.957 250.586L517.261 251.304ZM535.546 251.304L536.242 252.022L536.242 252.022L535.546 251.304ZM535.546 228.249L536.242 227.531L536.242 227.531L535.546 228.249ZM550.145 229.945H549.145L551.122 230.159L550.145 229.945ZM550.145 226.553H551.145V225.553H550.145V226.553ZM541.294 226.553V225.553H540.294V226.553H541.294ZM541.294 253H540.294V254H541.294V253ZM550.304 253V254H551.304V253H550.304ZM553.961 253H552.961V254H553.961V253ZM562.971 253V254H563.971V253H562.971ZM245 222C245 217.582 248.582 214 253 214V212C247.477 212 243 216.477 243 222H245ZM289 266C264.699 266 245 246.301 245 222H243C243 247.405 263.595 268 289 268V266ZM575 266H289V268H575V266ZM619 222C619 246.301 599.301 266 575 266V268C600.405 268 621 247.405 621 222H619ZM611 214C615.418 214 619 217.582 619 222H621C621 216.477 616.523 212 611 212V214ZM253 214H611V212H253V214ZM322.064 230.694H312.789V232.694H322.064V230.694ZM321.064 225.546V231.694H323.064V225.546H321.064ZM314.273 219.974C316.754 219.974 318.428 220.501 319.472 221.381C320.483 222.235 321.064 223.558 321.064 225.546H323.064C323.064 223.152 322.347 221.19 320.761 219.853C319.208 218.543 316.987 217.974 314.273 217.974V219.974ZM306.8 219.974H314.273V217.974H306.8V219.974ZM300.009 225.546C300.009 223.558 300.59 222.235 301.602 221.381C302.646 220.501 304.32 219.974 306.8 219.974V217.974C304.087 217.974 301.865 218.543 300.312 219.853C298.727 221.19 298.009 223.152 298.009 225.546H300.009ZM300.009 246.428V225.546H298.009V246.428H300.009ZM306.8 252C304.32 252 302.646 251.473 301.602 250.593C300.59 249.739 300.009 248.416 300.009 246.428H298.009C298.009 248.822 298.727 250.784 300.312 252.121C301.865 253.431 304.087 254 306.8 254V252ZM314.273 252H306.8V254H314.273V252ZM321.064 246.428C321.064 248.416 320.483 249.739 319.472 250.593C318.428 251.473 316.754 252 314.273 252V254C316.987 254 319.208 253.431 320.761 252.121C322.347 250.784 323.064 248.822 323.064 246.428H321.064ZM321.064 240.492V246.428H323.064V240.492H321.064ZM312.789 241.492H322.064V239.492H312.789V241.492ZM313.789 245.739V240.492H311.789V245.739H313.789ZM311.464 247.905C312.031 247.905 312.643 247.783 313.119 247.364C313.619 246.924 313.789 246.317 313.789 245.739H311.789C311.789 245.841 311.775 245.886 311.771 245.895C311.77 245.897 311.778 245.88 311.797 245.863C311.832 245.833 311.781 245.905 311.464 245.905V247.905ZM309.609 247.905H311.464V245.905H309.609V247.905ZM307.284 245.739C307.284 246.317 307.454 246.924 307.955 247.364C308.431 247.783 309.043 247.905 309.609 247.905V245.905C309.293 245.905 309.242 245.833 309.276 245.863C309.296 245.88 309.303 245.897 309.302 245.895C309.299 245.886 309.284 245.841 309.284 245.739H307.284ZM307.284 226.235V245.739H309.284V226.235H307.284ZM309.609 224.069C309.043 224.069 308.431 224.191 307.955 224.61C307.454 225.05 307.284 225.657 307.284 226.235H309.284C309.284 226.133 309.299 226.088 309.302 226.079C309.303 226.077 309.296 226.094 309.276 226.111C309.242 226.141 309.293 226.069 309.609 226.069V224.069ZM311.464 224.069H309.609V226.069H311.464V224.069ZM313.789 226.235C313.789 225.657 313.619 225.05 313.119 224.61C312.643 224.191 312.031 224.069 311.464 224.069V226.069C311.781 226.069 311.832 226.141 311.797 226.111C311.778 226.094 311.77 226.077 311.771 226.079C311.775 226.088 311.789 226.133 311.789 226.235H313.789ZM313.789 231.694V226.235H311.789V231.694H313.789ZM332.777 227.553H339.508V225.553H332.777V227.553ZM327.696 228.967C328.585 228.104 330.191 227.553 332.777 227.553V225.553C329.992 225.553 327.746 226.132 326.303 227.531L327.696 228.967ZM326.251 233.125C326.251 231.189 326.778 229.857 327.696 228.967L326.303 227.531C324.889 228.903 324.251 230.821 324.251 233.125H326.251ZM326.251 246.428V233.125H324.251V246.428H326.251ZM327.696 250.586C326.778 249.696 326.251 248.364 326.251 246.428H324.251C324.251 248.732 324.889 250.65 326.303 252.022L327.696 250.586ZM332.777 252C330.191 252 328.585 251.449 327.696 250.586L326.303 252.022C327.746 253.421 329.992 254 332.777 254V252ZM339.508 252H332.777V254H339.508V252ZM344.588 250.586C343.699 251.449 342.093 252 339.508 252V254C342.292 254 344.538 253.421 345.981 252.022L344.588 250.586ZM346.034 246.428C346.034 248.364 345.506 249.696 344.588 250.586L345.981 252.022C347.395 250.65 348.034 248.732 348.034 246.428H346.034ZM346.034 233.125V246.428H348.034V233.125H346.034ZM344.588 228.967C345.506 229.857 346.034 231.189 346.034 233.125H348.034C348.034 230.821 347.395 228.903 345.981 227.531L344.588 228.967ZM339.508 227.553C342.093 227.553 343.699 228.104 344.588 228.967L345.981 227.531C344.538 226.132 342.292 225.553 339.508 225.553V227.553ZM339.183 245.58V233.973H337.183V245.58H339.183ZM336.858 247.746C337.424 247.746 338.036 247.624 338.512 247.205C339.012 246.765 339.183 246.158 339.183 245.58H337.183C337.183 245.682 337.168 245.727 337.165 245.736C337.164 245.738 337.171 245.721 337.191 245.704C337.225 245.674 337.174 245.746 336.858 245.746V247.746ZM335.427 247.746H336.858V245.746H335.427V247.746ZM333.102 245.58C333.102 246.158 333.272 246.765 333.772 247.205C334.248 247.624 334.86 247.746 335.427 247.746V245.746C335.11 245.746 335.059 245.674 335.093 245.704C335.113 245.721 335.12 245.738 335.119 245.736C335.116 245.727 335.102 245.682 335.102 245.58H333.102ZM333.102 233.973V245.58H335.102V233.973H333.102ZM335.427 231.807C334.86 231.807 334.248 231.929 333.772 232.348C333.272 232.788 333.102 233.395 333.102 233.973H335.102C335.102 233.871 335.116 233.826 335.119 233.817C335.12 233.815 335.113 233.832 335.093 233.849C335.059 233.879 335.11 233.807 335.427 233.807V231.807ZM336.858 231.807H335.427V233.807H336.858V231.807ZM339.183 233.973C339.183 233.395 339.012 232.788 338.512 232.348C338.036 231.929 337.424 231.807 336.858 231.807V233.807C337.174 233.807 337.225 233.879 337.191 233.849C337.171 233.832 337.164 233.815 337.165 233.817C337.168 233.826 337.183 233.871 337.183 233.973H339.183ZM377.373 227.553H378.327V225.553H377.373V227.553ZM374.514 228.3C375.284 227.815 376.224 227.553 377.373 227.553V225.553C375.908 225.553 374.586 225.891 373.448 226.608L374.514 228.3ZM373.09 230.158C373.302 229.389 373.757 228.777 374.514 228.3L373.448 226.608C372.297 227.333 371.515 228.345 371.162 229.626L373.09 230.158ZM365.66 227.553C368.713 227.553 370.413 228.563 371.218 230.31L373.034 229.474C371.79 226.769 369.179 225.553 365.66 225.553V227.553ZM364.706 227.553H365.66V225.553H364.706V227.553ZM360.86 230.159C361.064 229.226 361.472 228.615 362.035 228.219C362.617 227.81 363.475 227.553 364.706 227.553V225.553C363.217 225.553 361.91 225.862 360.885 226.583C359.84 227.317 359.197 228.402 358.906 229.731L360.86 230.159ZM358.883 226.553V229.945H360.883V226.553H358.883ZM351.032 227.553H359.883V225.553H351.032V227.553ZM352.032 253V226.553H350.032V253H352.032ZM360.042 252H351.032V254H360.042V252ZM359.042 234.768V253H361.042V234.768H359.042ZM361.473 232.178C360.813 232.178 360.143 232.366 359.657 232.907C359.188 233.427 359.042 234.108 359.042 234.768H361.042C361.042 234.368 361.134 234.254 361.143 234.244C361.147 234.241 361.156 234.229 361.194 234.215C361.238 234.199 361.325 234.178 361.473 234.178V232.178ZM362.374 232.178H361.473V234.178H362.374V232.178ZM364.699 234.344C364.699 233.766 364.529 233.159 364.028 232.719C363.552 232.3 362.941 232.178 362.374 232.178V234.178C362.691 234.178 362.742 234.25 362.707 234.22C362.688 234.203 362.68 234.186 362.681 234.188C362.684 234.197 362.699 234.242 362.699 234.344H364.699ZM364.699 253V234.344H362.699V253H364.699ZM372.709 252H363.699V254H372.709V252ZM371.709 234.768V253H373.709V234.768H371.709ZM374.14 232.178C373.48 232.178 372.81 232.366 372.324 232.907C371.855 233.427 371.709 234.108 371.709 234.768H373.709C373.709 234.368 373.801 234.254 373.81 234.244C373.814 234.241 373.823 234.229 373.861 234.215C373.905 234.199 373.992 234.178 374.14 234.178V232.178ZM375.041 232.178H374.14V234.178H375.041V232.178ZM377.366 234.344C377.366 233.766 377.196 233.159 376.695 232.719C376.219 232.3 375.608 232.178 375.041 232.178V234.178C375.358 234.178 375.409 234.25 375.374 234.22C375.355 234.203 375.347 234.186 375.348 234.188C375.351 234.197 375.366 234.242 375.366 234.344H377.366ZM377.366 253V234.344H375.366V253H377.366ZM385.376 252H376.366V254H385.376V252ZM384.376 233.125V253H386.376V233.125H384.376ZM378.327 227.553C380.539 227.553 382.012 228.07 382.932 228.927C383.838 229.772 384.376 231.107 384.376 233.125H386.376C386.376 230.762 385.739 228.81 384.296 227.465C382.866 226.131 380.814 225.553 378.327 225.553V227.553ZM390.174 223.903V217.543H388.174V223.903H390.174ZM398.502 222.903H389.174V224.903H398.502V222.903ZM397.502 217.543V223.903H399.502V217.543H397.502ZM389.174 218.543H398.502V216.543H389.174V218.543ZM398.343 252H389.333V254H398.343V252ZM397.343 226.553V253H399.343V226.553H397.343ZM389.333 227.553H398.343V225.553H389.333V227.553ZM390.333 253V226.553H388.333V253H390.333ZM416.257 227.553H417.211V225.553H416.257V227.553ZM412.411 230.159C412.615 229.226 413.023 228.615 413.586 228.219C414.168 227.81 415.026 227.553 416.257 227.553V225.553C414.768 225.553 413.461 225.862 412.435 226.583C411.391 227.317 410.748 228.402 410.457 229.731L412.411 230.159ZM410.434 226.553V229.945H412.434V226.553H410.434ZM402.583 227.553H411.434V225.553H402.583V227.553ZM403.583 253V226.553H401.583V253H403.583ZM411.593 252H402.583V254H411.593V252ZM410.593 234.768V253H412.593V234.768H410.593ZM413.024 232.178C412.364 232.178 411.694 232.366 411.207 232.907C410.739 233.427 410.593 234.108 410.593 234.768H412.593C412.593 234.368 412.685 234.254 412.694 234.244C412.697 234.241 412.707 234.229 412.745 234.215C412.789 234.199 412.875 234.178 413.024 234.178V232.178ZM413.925 232.178H413.024V234.178H413.925V232.178ZM416.25 234.344C416.25 233.766 416.08 233.159 415.579 232.719C415.103 232.3 414.492 232.178 413.925 232.178V234.178C414.242 234.178 414.292 234.25 414.258 234.22C414.239 234.203 414.231 234.186 414.232 234.188C414.235 234.197 414.25 234.242 414.25 234.344H416.25ZM416.25 253V234.344H414.25V253H416.25ZM424.26 252H415.25V254H424.26V252ZM423.26 233.125V253H425.26V233.125H423.26ZM417.211 227.553C419.423 227.553 420.896 228.07 421.816 228.927C422.722 229.772 423.26 231.107 423.26 233.125H425.26C425.26 230.762 424.623 228.81 423.18 227.465C421.75 226.131 419.698 225.553 417.211 225.553V227.553ZM440.551 227.553H449.402V225.553H440.551V227.553ZM441.551 229.945V226.553H439.551V229.945H441.551ZM435.728 227.553C436.959 227.553 437.817 227.81 438.399 228.219C438.962 228.615 439.37 229.226 439.574 230.159L441.528 229.731C441.237 228.402 440.594 227.317 439.549 226.583C438.523 225.862 437.217 225.553 435.728 225.553V227.553ZM434.774 227.553H435.728V225.553H434.774V227.553ZM428.725 233.125C428.725 231.107 429.263 229.772 430.169 228.927C431.089 228.07 432.562 227.553 434.774 227.553V225.553C432.287 225.553 430.235 226.131 428.805 227.465C427.362 228.81 426.725 230.762 426.725 233.125H428.725ZM428.725 244.838V233.125H426.725V244.838H428.725ZM434.774 250.41C432.562 250.41 431.089 249.893 430.169 249.036C429.263 248.191 428.725 246.856 428.725 244.838H426.725C426.725 247.201 427.362 249.153 428.805 250.498C430.235 251.832 432.287 252.41 434.774 252.41V250.41ZM435.728 250.41H434.774V252.41H435.728V250.41ZM439.448 248.216C439.18 248.979 438.759 249.498 438.199 249.842C437.624 250.195 436.823 250.41 435.728 250.41V252.41C437.071 252.41 438.266 252.148 439.245 251.547C440.24 250.937 440.932 250.025 441.335 248.88L439.448 248.216ZM441.392 252.311V248.548H439.392V252.311H441.392ZM439.067 254.477C439.633 254.477 440.245 254.355 440.721 253.936C441.222 253.496 441.392 252.889 441.392 252.311H439.392C439.392 252.413 439.377 252.458 439.374 252.467C439.373 252.469 439.381 252.452 439.4 252.435C439.434 252.405 439.383 252.477 439.067 252.477V254.477ZM428.944 254.477H439.067V252.477H428.944V254.477ZM429.944 259.837V253.477H427.944V259.837H429.944ZM441.611 258.837H428.944V260.837H441.611V258.837ZM448.402 253.265C448.402 255.253 447.821 256.576 446.809 257.43C445.765 258.31 444.091 258.837 441.611 258.837V260.837C444.324 260.837 446.546 260.268 448.099 258.958C449.684 257.621 450.402 255.659 450.402 253.265H448.402ZM448.402 226.553V253.265H450.402V226.553H448.402ZM438.06 245.785H438.961V243.785H438.06V245.785ZM435.735 243.619C435.735 244.197 435.905 244.804 436.405 245.244C436.881 245.663 437.493 245.785 438.06 245.785V243.785C437.743 243.785 437.692 243.713 437.727 243.743C437.746 243.76 437.754 243.777 437.753 243.775C437.75 243.766 437.735 243.721 437.735 243.619H435.735ZM435.735 234.344V243.619H437.735V234.344H435.735ZM438.06 232.178C437.493 232.178 436.881 232.3 436.405 232.719C435.905 233.159 435.735 233.766 435.735 234.344H437.735C437.735 234.242 437.75 234.197 437.753 234.188C437.754 234.186 437.746 234.203 437.727 234.22C437.692 234.25 437.743 234.178 438.06 234.178V232.178ZM438.961 232.178H438.06V234.178H438.961V232.178ZM441.392 234.768C441.392 234.108 441.246 233.427 440.777 232.907C440.291 232.366 439.621 232.178 438.961 232.178V234.178C439.109 234.178 439.196 234.199 439.24 234.215C439.278 234.229 439.287 234.241 439.291 234.244C439.299 234.254 439.392 234.368 439.392 234.768H441.392ZM441.392 243.195V234.768H439.392V243.195H441.392ZM438.961 245.785C439.621 245.785 440.291 245.597 440.777 245.056C441.246 244.536 441.392 243.855 441.392 243.195H439.392C439.392 243.595 439.299 243.709 439.291 243.719C439.287 243.722 439.278 243.734 439.24 243.748C439.196 243.764 439.109 243.785 438.961 243.785V245.785ZM478.264 245.209V240.386H476.264V245.209H478.264ZM475.939 247.375C476.506 247.375 477.118 247.253 477.594 246.834C478.094 246.394 478.264 245.787 478.264 245.209H476.264C476.264 245.311 476.25 245.356 476.246 245.365C476.246 245.367 476.253 245.35 476.273 245.333C476.307 245.303 476.256 245.375 475.939 245.375V247.375ZM474.402 247.375H475.939V245.375H474.402V247.375ZM472.077 245.209C472.077 245.787 472.248 246.394 472.748 246.834C473.224 247.253 473.836 247.375 474.402 247.375V245.375C474.086 245.375 474.035 245.303 474.069 245.333C474.089 245.35 474.096 245.367 474.095 245.365C474.092 245.356 474.077 245.311 474.077 245.209H472.077ZM472.077 242.347V245.209H474.077V242.347H472.077ZM463.802 243.347H473.077V241.347H463.802V243.347ZM464.802 246.428V242.347H462.802V246.428H464.802ZM471.593 252C469.113 252 467.439 251.473 466.395 250.593C465.383 249.739 464.802 248.416 464.802 246.428H462.802C462.802 248.822 463.52 250.784 465.105 252.121C466.658 253.431 468.88 254 471.593 254V252ZM478.801 252H471.593V254H478.801V252ZM485.539 246.428C485.539 248.418 484.961 249.742 483.958 250.595C482.923 251.474 481.263 252 478.801 252V254C481.499 254 483.708 253.431 485.252 252.119C486.828 250.781 487.539 248.819 487.539 246.428H485.539ZM485.539 239.432V246.428H487.539V239.432H485.539ZM484.148 235.327C485.024 236.176 485.539 237.486 485.539 239.432H487.539C487.539 237.138 486.924 235.233 485.539 233.891L484.148 235.327ZM479.278 233.966C481.799 233.966 483.322 234.502 484.136 235.316L485.551 233.902C484.174 232.525 481.987 231.966 479.278 231.966V233.966ZM474.296 233.966H479.278V231.966H474.296V233.966ZM471.971 231.8C471.971 232.378 472.142 232.985 472.642 233.425C473.118 233.844 473.73 233.966 474.296 233.966V231.966C473.98 231.966 473.929 231.894 473.963 231.924C473.983 231.941 473.99 231.958 473.989 231.956C473.986 231.947 473.971 231.902 473.971 231.8H471.971ZM471.971 226.765V231.8H473.971V226.765H471.971ZM474.296 224.599C473.73 224.599 473.118 224.721 472.642 225.14C472.142 225.58 471.971 226.187 471.971 226.765H473.971C473.971 226.663 473.986 226.618 473.989 226.609C473.99 226.607 473.983 226.624 473.963 226.641C473.929 226.671 473.98 226.599 474.296 226.599V224.599ZM475.833 224.599H474.296V226.599H475.833V224.599ZM478.158 226.765C478.158 226.187 477.988 225.58 477.488 225.14C477.012 224.721 476.4 224.599 475.833 224.599V226.599C476.15 226.599 476.201 226.671 476.167 226.641C476.147 226.624 476.14 226.607 476.14 226.609C476.144 226.618 476.158 226.663 476.158 226.765H478.158ZM478.158 229.627V226.765H476.158V229.627H478.158ZM486.433 228.627H477.158V230.627H486.433V228.627ZM485.433 225.546V229.627H487.433V225.546H485.433ZM478.695 219.974C481.157 219.974 482.817 220.5 483.852 221.379C484.855 222.232 485.433 223.556 485.433 225.546H487.433C487.433 223.155 486.722 221.193 485.146 219.855C483.602 218.543 481.393 217.974 478.695 217.974V219.974ZM471.434 219.974H478.695V217.974H471.434V219.974ZM464.696 225.546C464.696 223.556 465.274 222.232 466.278 221.379C467.313 220.5 468.973 219.974 471.434 219.974V217.974C468.737 217.974 466.528 218.543 464.984 219.855C463.408 221.193 462.696 223.155 462.696 225.546H464.696ZM464.696 232.542V225.546H462.696V232.542H464.696ZM466.026 236.851C465.187 235.928 464.696 234.541 464.696 232.542H462.696C462.696 234.854 463.266 236.788 464.546 238.197L466.026 236.851ZM470.851 238.22C468.337 238.22 466.819 237.669 466.005 236.828L464.568 238.22C465.944 239.64 468.136 240.22 470.851 240.22V238.22ZM475.939 238.22H470.851V240.22H475.939V238.22ZM478.264 240.386C478.264 239.808 478.094 239.201 477.594 238.761C477.118 238.342 476.506 238.22 475.939 238.22V240.22C476.256 240.22 476.307 240.292 476.273 240.262C476.253 240.245 476.246 240.228 476.246 240.23C476.25 240.239 476.264 240.284 476.264 240.386H478.264ZM497.522 227.553H504.253V225.553H497.522V227.553ZM492.441 228.967C493.33 228.104 494.936 227.553 497.522 227.553V225.553C494.737 225.553 492.491 226.132 491.048 227.531L492.441 228.967ZM490.996 233.125C490.996 231.189 491.523 229.857 492.441 228.967L491.048 227.531C489.634 228.903 488.996 230.821 488.996 233.125H490.996ZM490.996 246.428V233.125H488.996V246.428H490.996ZM492.441 250.586C491.523 249.696 490.996 248.364 490.996 246.428H488.996C488.996 248.732 489.634 250.65 491.048 252.022L492.441 250.586ZM497.522 252C494.936 252 493.33 251.449 492.441 250.586L491.048 252.022C492.491 253.421 494.737 254 497.522 254V252ZM504.253 252H497.522V254H504.253V252ZM509.333 250.586C508.444 251.449 506.838 252 504.253 252V254C507.037 254 509.283 253.421 510.726 252.022L509.333 250.586ZM510.779 246.428C510.779 248.364 510.251 249.696 509.333 250.586L510.726 252.022C512.14 250.65 512.779 248.732 512.779 246.428H510.779ZM510.779 233.125V246.428H512.779V233.125H510.779ZM509.333 228.967C510.251 229.857 510.779 231.189 510.779 233.125H512.779C512.779 230.821 512.14 228.903 510.726 227.531L509.333 228.967ZM504.253 227.553C506.838 227.553 508.444 228.104 509.333 228.967L510.726 227.531C509.283 226.132 507.037 225.553 504.253 225.553V227.553ZM503.928 245.58V233.973H501.928V245.58H503.928ZM501.603 247.746C502.169 247.746 502.781 247.624 503.257 247.205C503.757 246.765 503.928 246.158 503.928 245.58H501.928C501.928 245.682 501.913 245.727 501.91 245.736C501.909 245.738 501.916 245.721 501.936 245.704C501.97 245.674 501.919 245.746 501.603 245.746V247.746ZM500.172 247.746H501.603V245.746H500.172V247.746ZM497.847 245.58C497.847 246.158 498.017 246.765 498.517 247.205C498.993 247.624 499.605 247.746 500.172 247.746V245.746C499.855 245.746 499.804 245.674 499.838 245.704C499.858 245.721 499.866 245.738 499.865 245.736C499.861 245.727 499.847 245.682 499.847 245.58H497.847ZM497.847 233.973V245.58H499.847V233.973H497.847ZM500.172 231.807C499.605 231.807 498.993 231.929 498.517 232.348C498.017 232.788 497.847 233.395 497.847 233.973H499.847C499.847 233.871 499.861 233.826 499.865 233.817C499.866 233.815 499.858 233.832 499.838 233.849C499.804 233.879 499.855 233.807 500.172 233.807V231.807ZM501.603 231.807H500.172V233.807H501.603V231.807ZM503.928 233.973C503.928 233.395 503.757 232.788 503.257 232.348C502.781 231.929 502.169 231.807 501.603 231.807V233.807C501.919 233.807 501.97 233.879 501.936 233.849C501.916 233.832 501.909 233.815 501.91 233.817C501.913 233.826 501.928 233.871 501.928 233.973H503.928ZM523.038 227.553H529.769V225.553H523.038V227.553ZM517.957 228.967C518.847 228.104 520.452 227.553 523.038 227.553V225.553C520.253 225.553 518.008 226.132 516.565 227.531L517.957 228.967ZM516.512 233.125C516.512 231.189 517.04 229.857 517.957 228.967L516.565 227.531C515.151 228.903 514.512 230.821 514.512 233.125H516.512ZM516.512 246.428V233.125H514.512V246.428H516.512ZM517.957 250.586C517.04 249.696 516.512 248.364 516.512 246.428H514.512C514.512 248.732 515.151 250.65 516.565 252.022L517.957 250.586ZM523.038 252C520.452 252 518.847 251.449 517.957 250.586L516.565 252.022C518.008 253.421 520.253 254 523.038 254V252ZM529.769 252H523.038V254H529.769V252ZM534.85 250.586C533.961 251.449 532.355 252 529.769 252V254C532.554 254 534.8 253.421 536.242 252.022L534.85 250.586ZM536.295 246.428C536.295 248.364 535.768 249.696 534.85 250.586L536.242 252.022C537.657 250.65 538.295 248.732 538.295 246.428H536.295ZM536.295 233.125V246.428H538.295V233.125H536.295ZM534.85 228.967C535.768 229.857 536.295 231.189 536.295 233.125H538.295C538.295 230.821 537.657 228.903 536.242 227.531L534.85 228.967ZM529.769 227.553C532.355 227.553 533.961 228.104 534.85 228.967L536.242 227.531C534.8 226.132 532.554 225.553 529.769 225.553V227.553ZM529.444 245.58V233.973H527.444V245.58H529.444ZM527.119 247.746C527.686 247.746 528.298 247.624 528.774 247.205C529.274 246.765 529.444 246.158 529.444 245.58H527.444C527.444 245.682 527.429 245.727 527.426 245.736C527.425 245.738 527.433 245.721 527.452 245.704C527.487 245.674 527.436 245.746 527.119 245.746V247.746ZM525.688 247.746H527.119V245.746H525.688V247.746ZM523.363 245.58C523.363 246.158 523.533 246.765 524.034 247.205C524.51 247.624 525.122 247.746 525.688 247.746V245.746C525.372 245.746 525.321 245.674 525.355 245.704C525.374 245.721 525.382 245.738 525.381 245.736C525.378 245.727 525.363 245.682 525.363 245.58H523.363ZM523.363 233.973V245.58H525.363V233.973H523.363ZM525.688 231.807C525.122 231.807 524.51 231.929 524.034 232.348C523.533 232.788 523.363 233.395 523.363 233.973H525.363C525.363 233.871 525.378 233.826 525.381 233.817C525.382 233.815 525.374 233.832 525.355 233.849C525.321 233.879 525.372 233.807 525.688 233.807V231.807ZM527.119 231.807H525.688V233.807H527.119V231.807ZM529.444 233.973C529.444 233.395 529.274 232.788 528.774 232.348C528.298 231.929 527.686 231.807 527.119 231.807V233.807C527.436 233.807 527.487 233.879 527.452 233.849C527.433 233.832 527.425 233.815 527.426 233.817C527.429 233.826 527.444 233.871 527.444 233.973H529.444ZM554.968 227.553H555.922V225.553H554.968V227.553ZM551.122 230.159C551.326 229.226 551.733 228.615 552.297 228.219C552.879 227.81 553.736 227.553 554.968 227.553V225.553C553.479 225.553 552.172 225.862 551.146 226.583C550.102 227.317 549.459 228.402 549.168 229.731L551.122 230.159ZM549.145 226.553V229.945H551.145V226.553H549.145ZM541.294 227.553H550.145V225.553H541.294V227.553ZM542.294 253V226.553H540.294V253H542.294ZM550.304 252H541.294V254H550.304V252ZM549.304 234.768V253H551.304V234.768H549.304ZM551.735 232.178C551.075 232.178 550.405 232.366 549.918 232.907C549.45 233.427 549.304 234.108 549.304 234.768H551.304C551.304 234.368 551.396 234.254 551.405 234.244C551.408 234.241 551.418 234.229 551.456 234.215C551.5 234.199 551.586 234.178 551.735 234.178V232.178ZM552.636 232.178H551.735V234.178H552.636V232.178ZM554.961 234.344C554.961 233.766 554.791 233.159 554.29 232.719C553.814 232.3 553.202 232.178 552.636 232.178V234.178C552.953 234.178 553.003 234.25 552.969 234.22C552.95 234.203 552.942 234.186 552.943 234.188C552.946 234.197 552.961 234.242 552.961 234.344H554.961ZM554.961 253V234.344H552.961V253H554.961ZM562.971 252H553.961V254H562.971V252ZM561.971 233.125V253H563.971V233.125H561.971ZM555.922 227.553C558.134 227.553 559.607 228.07 560.527 228.927C561.433 229.772 561.971 231.107 561.971 233.125H563.971C563.971 230.762 563.334 228.81 561.89 227.465C560.46 226.131 558.409 225.553 555.922 225.553V227.553Z" fill="black" fill-opacity="0.12" mask="url(#path-7-inside-1_488_21)"/>
</svg>
