<svg width="926" height="316" viewBox="0 0 926 316" fill="none" xmlns="http://www.w3.org/2000/svg">
<g filter="url(#filter0_d_27_3)">
<mask id="path-1-outside-1_27_3" maskUnits="userSpaceOnUse" x="0" y="163.4" width="903" height="133" fill="black">
<rect fill="white" y="163.4" width="903" height="133"/>
<path d="M76.4 293.8L72.4 274.6H41.6L37.4 293.8H3L36 165.4H78.6L111.6 293.8H76.4ZM47 249.8H67L57.2 203.6L47 249.8Z"/>
<path d="M178.194 165.4H210.194V293.8H180.194L151.594 226.4V293.8H119.594V165.4H149.594L178.194 234V165.4Z"/>
<path d="M291.634 293.8L287.634 274.6H256.834L252.634 293.8H218.234L251.234 165.4H293.834L326.834 293.8H291.634ZM262.234 249.8H282.234L272.434 203.6L262.234 249.8Z"/>
<path d="M393.428 165.4H425.428V293.8H395.428L366.828 226.4V293.8H334.828V165.4H364.828L393.428 234V165.4Z"/>
<path d="M518.869 165.4V190.4H494.069V293.8H459.069V190.4H434.469V165.4H518.869Z"/>
<path d="M593.197 293.8L589.197 274.6H558.397L554.197 293.8H519.797L552.797 165.4H595.397L628.397 293.8H593.197ZM563.797 249.8H583.797L573.997 203.6L563.797 249.8Z"/>
<path d="M676.43 165.4H711.23V183.4L685.83 228H676.43V165.4Z"/>
<path d="M758.811 194.8V209.4H723.811V190.2C723.811 173.667 733.611 165.4 753.211 165.4H777.411C797.278 165.4 807.211 173.667 807.211 190.2V208.6C807.211 215.267 806.078 221 803.811 225.8C801.678 230.467 798.144 235.533 793.211 241L768.411 268.8H807.211V293.8H724.811V271L762.811 230.2C766.811 226.067 769.478 222.533 770.811 219.6C772.144 216.533 772.811 212.8 772.811 208.4V194.8C772.811 191.867 771.144 190.4 767.811 190.4H763.811C760.478 190.4 758.811 191.867 758.811 194.8Z"/>
<path d="M852.561 194.8V209.4H817.561V190.2C817.561 173.667 827.361 165.4 846.961 165.4H871.161C891.028 165.4 900.961 173.667 900.961 190.2V208.6C900.961 215.267 899.828 221 897.561 225.8C895.428 230.467 891.894 235.533 886.961 241L862.161 268.8H900.961V293.8H818.561V271L856.561 230.2C860.561 226.067 863.228 222.533 864.561 219.6C865.894 216.533 866.561 212.8 866.561 208.4V194.8C866.561 191.867 864.894 190.4 861.561 190.4H857.561C854.228 190.4 852.561 191.867 852.561 194.8Z"/>
</mask>
<path d="M76.4 293.8L72.4 274.6H41.6L37.4 293.8H3L36 165.4H78.6L111.6 293.8H76.4ZM47 249.8H67L57.2 203.6L47 249.8Z" fill="url(#paint0_linear_27_3)"/>
<path d="M178.194 165.4H210.194V293.8H180.194L151.594 226.4V293.8H119.594V165.4H149.594L178.194 234V165.4Z" fill="url(#paint1_linear_27_3)"/>
<path d="M291.634 293.8L287.634 274.6H256.834L252.634 293.8H218.234L251.234 165.4H293.834L326.834 293.8H291.634ZM262.234 249.8H282.234L272.434 203.6L262.234 249.8Z" fill="url(#paint2_linear_27_3)"/>
<path d="M393.428 165.4H425.428V293.8H395.428L366.828 226.4V293.8H334.828V165.4H364.828L393.428 234V165.4Z" fill="url(#paint3_linear_27_3)"/>
<path d="M518.869 165.4V190.4H494.069V293.8H459.069V190.4H434.469V165.4H518.869Z" fill="url(#paint4_linear_27_3)"/>
<path d="M593.197 293.8L589.197 274.6H558.397L554.197 293.8H519.797L552.797 165.4H595.397L628.397 293.8H593.197ZM563.797 249.8H583.797L573.997 203.6L563.797 249.8Z" fill="url(#paint5_linear_27_3)"/>
<path d="M676.43 165.4H711.23V183.4L685.83 228H676.43V165.4Z" fill="url(#paint6_linear_27_3)"/>
<path d="M758.811 194.8V209.4H723.811V190.2C723.811 173.667 733.611 165.4 753.211 165.4H777.411C797.278 165.4 807.211 173.667 807.211 190.2V208.6C807.211 215.267 806.078 221 803.811 225.8C801.678 230.467 798.144 235.533 793.211 241L768.411 268.8H807.211V293.8H724.811V271L762.811 230.2C766.811 226.067 769.478 222.533 770.811 219.6C772.144 216.533 772.811 212.8 772.811 208.4V194.8C772.811 191.867 771.144 190.4 767.811 190.4H763.811C760.478 190.4 758.811 191.867 758.811 194.8Z" fill="url(#paint7_linear_27_3)"/>
<path d="M852.561 194.8V209.4H817.561V190.2C817.561 173.667 827.361 165.4 846.961 165.4H871.161C891.028 165.4 900.961 173.667 900.961 190.2V208.6C900.961 215.267 899.828 221 897.561 225.8C895.428 230.467 891.894 235.533 886.961 241L862.161 268.8H900.961V293.8H818.561V271L856.561 230.2C860.561 226.067 863.228 222.533 864.561 219.6C865.894 216.533 866.561 212.8 866.561 208.4V194.8C866.561 191.867 864.894 190.4 861.561 190.4H857.561C854.228 190.4 852.561 191.867 852.561 194.8Z" fill="url(#paint8_linear_27_3)"/>
<path d="M76.4 293.8L72.4 274.6H41.6L37.4 293.8H3L36 165.4H78.6L111.6 293.8H76.4ZM47 249.8H67L57.2 203.6L47 249.8Z" stroke="black" stroke-width="4" mask="url(#path-1-outside-1_27_3)"/>
<path d="M178.194 165.4H210.194V293.8H180.194L151.594 226.4V293.8H119.594V165.4H149.594L178.194 234V165.4Z" stroke="black" stroke-width="4" mask="url(#path-1-outside-1_27_3)"/>
<path d="M291.634 293.8L287.634 274.6H256.834L252.634 293.8H218.234L251.234 165.4H293.834L326.834 293.8H291.634ZM262.234 249.8H282.234L272.434 203.6L262.234 249.8Z" stroke="black" stroke-width="4" mask="url(#path-1-outside-1_27_3)"/>
<path d="M393.428 165.4H425.428V293.8H395.428L366.828 226.4V293.8H334.828V165.4H364.828L393.428 234V165.4Z" stroke="black" stroke-width="4" mask="url(#path-1-outside-1_27_3)"/>
<path d="M518.869 165.4V190.4H494.069V293.8H459.069V190.4H434.469V165.4H518.869Z" stroke="black" stroke-width="4" mask="url(#path-1-outside-1_27_3)"/>
<path d="M593.197 293.8L589.197 274.6H558.397L554.197 293.8H519.797L552.797 165.4H595.397L628.397 293.8H593.197ZM563.797 249.8H583.797L573.997 203.6L563.797 249.8Z" stroke="black" stroke-width="4" mask="url(#path-1-outside-1_27_3)"/>
<path d="M676.43 165.4H711.23V183.4L685.83 228H676.43V165.4Z" stroke="black" stroke-width="4" mask="url(#path-1-outside-1_27_3)"/>
<path d="M758.811 194.8V209.4H723.811V190.2C723.811 173.667 733.611 165.4 753.211 165.4H777.411C797.278 165.4 807.211 173.667 807.211 190.2V208.6C807.211 215.267 806.078 221 803.811 225.8C801.678 230.467 798.144 235.533 793.211 241L768.411 268.8H807.211V293.8H724.811V271L762.811 230.2C766.811 226.067 769.478 222.533 770.811 219.6C772.144 216.533 772.811 212.8 772.811 208.4V194.8C772.811 191.867 771.144 190.4 767.811 190.4H763.811C760.478 190.4 758.811 191.867 758.811 194.8Z" stroke="black" stroke-width="4" mask="url(#path-1-outside-1_27_3)"/>
<path d="M852.561 194.8V209.4H817.561V190.2C817.561 173.667 827.361 165.4 846.961 165.4H871.161C891.028 165.4 900.961 173.667 900.961 190.2V208.6C900.961 215.267 899.828 221 897.561 225.8C895.428 230.467 891.894 235.533 886.961 241L862.161 268.8H900.961V293.8H818.561V271L856.561 230.2C860.561 226.067 863.228 222.533 864.561 219.6C865.894 216.533 866.561 212.8 866.561 208.4V194.8C866.561 191.867 864.894 190.4 861.561 190.4H857.561C854.228 190.4 852.561 191.867 852.561 194.8Z" stroke="black" stroke-width="4" mask="url(#path-1-outside-1_27_3)"/>
<rect x="4" y="126.4" width="896" height="24" fill="url(#paint9_linear_27_3)" stroke="black" stroke-width="2"/>
<mask id="path-3-outside-2_27_3" maskUnits="userSpaceOnUse" x="1" y="0" width="905" height="113" fill="black">
<rect fill="white" x="1" width="905" height="113"/>
<path d="M92.4843 39.352H56.5674V25.2601C56.5674 22.77 54.8571 21.5249 51.4365 21.5249H44.0478C40.6272 21.5249 38.9169 22.77 38.9169 25.2601V87.7399C38.9169 90.23 40.6272 91.4751 44.0478 91.4751H51.4365C54.8571 91.4751 56.5674 90.23 56.5674 87.7399V69.5732H46.3055V50.7274H92.4843V89.947C92.4843 103.982 82.4276 111 62.3141 111H33.1702C13.0567 111 3 103.982 3 89.947V23.053C3 9.01765 13.0567 2 33.1702 2H62.3141C82.4276 2 92.4843 9.01765 92.4843 23.053V39.352Z"/>
<path d="M142.763 89.7773H183.606V111H106.846V2H142.763V89.7773Z"/>
<path d="M191.828 2H227.745V111H191.828V2Z"/>
<path d="M276.157 111H244.14V2H283.341L304.686 60.2352L326.03 2H365.231V111H333.419V41.729L317 87.4003H292.371L276.157 42.0685V111Z"/>
<path d="M381.634 2H442.59C462.704 2 472.76 9.01765 472.76 23.053V54.2928C472.76 68.3281 462.704 75.3458 442.59 75.3458H417.551V111H381.634V2ZM436.844 50.3878V26.9579C436.844 24.4678 435.133 23.2227 431.713 23.2227H417.551V54.1231H431.713C435.133 54.1231 436.844 52.878 436.844 50.3878Z"/>
<path d="M535.544 86.0421V70.5919C535.544 68.1018 533.834 66.8567 530.413 66.8567H510.71C500.585 66.8567 493.402 65.0457 489.16 61.4237C485.056 57.6885 483.003 52.3686 483.003 45.4642V23.053C483.003 9.01765 492.991 2 512.968 2H541.086C561.062 2 571.051 9.01765 571.051 23.053V36.1262H535.134V26.9579C535.134 24.4678 533.424 23.2227 530.003 23.2227H524.051C520.63 23.2227 518.92 24.4678 518.92 26.9579V43.0872C518.92 45.5774 520.63 46.8224 524.051 46.8224H543.343C553.469 46.8224 560.652 48.5768 564.894 52.0857C569.272 55.5945 571.461 60.7445 571.461 67.5358V89.947C571.461 103.982 561.473 111 541.496 111H513.584C493.47 111 483.414 103.982 483.414 89.947V76.8738H519.33V86.0421C519.33 88.5322 521.041 89.7773 524.461 89.7773H530.413C533.834 89.7773 535.544 88.5322 535.544 86.0421Z"/>
<path d="M621.788 89.7773H666.735V111H585.871V2H664.888V23.2227H621.788V45.4642H658.936V66.6869H621.788V89.7773Z"/>
<path d="M748.711 2H779.086C799.2 2 809.256 9.01765 809.256 23.053V89.947C809.256 103.982 799.2 111 779.086 111H748.711C728.597 111 718.541 103.982 718.541 89.947V23.053C718.541 9.01765 728.597 2 748.711 2ZM773.34 86.0421V26.9579C773.34 24.4678 771.629 23.2227 768.209 23.2227H759.589C756.168 23.2227 754.458 24.4678 754.458 26.9579V86.0421C754.458 88.5322 756.168 89.7773 759.589 89.7773H768.209C771.629 89.7773 773.34 88.5322 773.34 86.0421Z"/>
<path d="M904 23.2227H860.9V49.7087H898.253V69.2336H860.9V111H824.983V2H904V23.2227Z"/>
</mask>
<path d="M92.4843 39.352H56.5674V25.2601C56.5674 22.77 54.8571 21.5249 51.4365 21.5249H44.0478C40.6272 21.5249 38.9169 22.77 38.9169 25.2601V87.7399C38.9169 90.23 40.6272 91.4751 44.0478 91.4751H51.4365C54.8571 91.4751 56.5674 90.23 56.5674 87.7399V69.5732H46.3055V50.7274H92.4843V89.947C92.4843 103.982 82.4276 111 62.3141 111H33.1702C13.0567 111 3 103.982 3 89.947V23.053C3 9.01765 13.0567 2 33.1702 2H62.3141C82.4276 2 92.4843 9.01765 92.4843 23.053V39.352Z" fill="url(#paint10_linear_27_3)"/>
<path d="M142.763 89.7773H183.606V111H106.846V2H142.763V89.7773Z" fill="url(#paint11_linear_27_3)"/>
<path d="M191.828 2H227.745V111H191.828V2Z" fill="url(#paint12_linear_27_3)"/>
<path d="M276.157 111H244.14V2H283.341L304.686 60.2352L326.03 2H365.231V111H333.419V41.729L317 87.4003H292.371L276.157 42.0685V111Z" fill="url(#paint13_linear_27_3)"/>
<path d="M381.634 2H442.59C462.704 2 472.76 9.01765 472.76 23.053V54.2928C472.76 68.3281 462.704 75.3458 442.59 75.3458H417.551V111H381.634V2ZM436.844 50.3878V26.9579C436.844 24.4678 435.133 23.2227 431.713 23.2227H417.551V54.1231H431.713C435.133 54.1231 436.844 52.878 436.844 50.3878Z" fill="url(#paint14_linear_27_3)"/>
<path d="M535.544 86.0421V70.5919C535.544 68.1018 533.834 66.8567 530.413 66.8567H510.71C500.585 66.8567 493.402 65.0457 489.16 61.4237C485.056 57.6885 483.003 52.3686 483.003 45.4642V23.053C483.003 9.01765 492.991 2 512.968 2H541.086C561.062 2 571.051 9.01765 571.051 23.053V36.1262H535.134V26.9579C535.134 24.4678 533.424 23.2227 530.003 23.2227H524.051C520.63 23.2227 518.92 24.4678 518.92 26.9579V43.0872C518.92 45.5774 520.63 46.8224 524.051 46.8224H543.343C553.469 46.8224 560.652 48.5768 564.894 52.0857C569.272 55.5945 571.461 60.7445 571.461 67.5358V89.947C571.461 103.982 561.473 111 541.496 111H513.584C493.47 111 483.414 103.982 483.414 89.947V76.8738H519.33V86.0421C519.33 88.5322 521.041 89.7773 524.461 89.7773H530.413C533.834 89.7773 535.544 88.5322 535.544 86.0421Z" fill="url(#paint15_linear_27_3)"/>
<path d="M621.788 89.7773H666.735V111H585.871V2H664.888V23.2227H621.788V45.4642H658.936V66.6869H621.788V89.7773Z" fill="url(#paint16_linear_27_3)"/>
<path d="M748.711 2H779.086C799.2 2 809.256 9.01765 809.256 23.053V89.947C809.256 103.982 799.2 111 779.086 111H748.711C728.597 111 718.541 103.982 718.541 89.947V23.053C718.541 9.01765 728.597 2 748.711 2ZM773.34 86.0421V26.9579C773.34 24.4678 771.629 23.2227 768.209 23.2227H759.589C756.168 23.2227 754.458 24.4678 754.458 26.9579V86.0421C754.458 88.5322 756.168 89.7773 759.589 89.7773H768.209C771.629 89.7773 773.34 88.5322 773.34 86.0421Z" fill="url(#paint17_linear_27_3)"/>
<path d="M904 23.2227H860.9V49.7087H898.253V69.2336H860.9V111H824.983V2H904V23.2227Z" fill="url(#paint18_linear_27_3)"/>
<path d="M92.4843 39.352H56.5674V25.2601C56.5674 22.77 54.8571 21.5249 51.4365 21.5249H44.0478C40.6272 21.5249 38.9169 22.77 38.9169 25.2601V87.7399C38.9169 90.23 40.6272 91.4751 44.0478 91.4751H51.4365C54.8571 91.4751 56.5674 90.23 56.5674 87.7399V69.5732H46.3055V50.7274H92.4843V89.947C92.4843 103.982 82.4276 111 62.3141 111H33.1702C13.0567 111 3 103.982 3 89.947V23.053C3 9.01765 13.0567 2 33.1702 2H62.3141C82.4276 2 92.4843 9.01765 92.4843 23.053V39.352Z" stroke="black" stroke-width="4" mask="url(#path-3-outside-2_27_3)"/>
<path d="M142.763 89.7773H183.606V111H106.846V2H142.763V89.7773Z" stroke="black" stroke-width="4" mask="url(#path-3-outside-2_27_3)"/>
<path d="M191.828 2H227.745V111H191.828V2Z" stroke="black" stroke-width="4" mask="url(#path-3-outside-2_27_3)"/>
<path d="M276.157 111H244.14V2H283.341L304.686 60.2352L326.03 2H365.231V111H333.419V41.729L317 87.4003H292.371L276.157 42.0685V111Z" stroke="black" stroke-width="4" mask="url(#path-3-outside-2_27_3)"/>
<path d="M381.634 2H442.59C462.704 2 472.76 9.01765 472.76 23.053V54.2928C472.76 68.3281 462.704 75.3458 442.59 75.3458H417.551V111H381.634V2ZM436.844 50.3878V26.9579C436.844 24.4678 435.133 23.2227 431.713 23.2227H417.551V54.1231H431.713C435.133 54.1231 436.844 52.878 436.844 50.3878Z" stroke="black" stroke-width="4" mask="url(#path-3-outside-2_27_3)"/>
<path d="M535.544 86.0421V70.5919C535.544 68.1018 533.834 66.8567 530.413 66.8567H510.71C500.585 66.8567 493.402 65.0457 489.16 61.4237C485.056 57.6885 483.003 52.3686 483.003 45.4642V23.053C483.003 9.01765 492.991 2 512.968 2H541.086C561.062 2 571.051 9.01765 571.051 23.053V36.1262H535.134V26.9579C535.134 24.4678 533.424 23.2227 530.003 23.2227H524.051C520.63 23.2227 518.92 24.4678 518.92 26.9579V43.0872C518.92 45.5774 520.63 46.8224 524.051 46.8224H543.343C553.469 46.8224 560.652 48.5768 564.894 52.0857C569.272 55.5945 571.461 60.7445 571.461 67.5358V89.947C571.461 103.982 561.473 111 541.496 111H513.584C493.47 111 483.414 103.982 483.414 89.947V76.8738H519.33V86.0421C519.33 88.5322 521.041 89.7773 524.461 89.7773H530.413C533.834 89.7773 535.544 88.5322 535.544 86.0421Z" stroke="black" stroke-width="4" mask="url(#path-3-outside-2_27_3)"/>
<path d="M621.788 89.7773H666.735V111H585.871V2H664.888V23.2227H621.788V45.4642H658.936V66.6869H621.788V89.7773Z" stroke="black" stroke-width="4" mask="url(#path-3-outside-2_27_3)"/>
<path d="M748.711 2H779.086C799.2 2 809.256 9.01765 809.256 23.053V89.947C809.256 103.982 799.2 111 779.086 111H748.711C728.597 111 718.541 103.982 718.541 89.947V23.053C718.541 9.01765 728.597 2 748.711 2ZM773.34 86.0421V26.9579C773.34 24.4678 771.629 23.2227 768.209 23.2227H759.589C756.168 23.2227 754.458 24.4678 754.458 26.9579V86.0421C754.458 88.5322 756.168 89.7773 759.589 89.7773H768.209C771.629 89.7773 773.34 88.5322 773.34 86.0421Z" stroke="black" stroke-width="4" mask="url(#path-3-outside-2_27_3)"/>
<path d="M904 23.2227H860.9V49.7087H898.253V69.2336H860.9V111H824.983V2H904V23.2227Z" stroke="black" stroke-width="4" mask="url(#path-3-outside-2_27_3)"/>
</g>
<defs>
<filter id="filter0_d_27_3" x="0.421021" y="0" width="925.579" height="315.8" filterUnits="userSpaceOnUse" color-interpolation-filters="sRGB">
<feFlood flood-opacity="0" result="BackgroundImageFix"/>
<feColorMatrix in="SourceAlpha" type="matrix" values="0 0 0 0 0 0 0 0 0 0 0 0 0 0 0 0 0 0 127 0" result="hardAlpha"/>
<feOffset dx="15" dy="15"/>
<feGaussianBlur stdDeviation="2.5"/>
<feComposite in2="hardAlpha" operator="out"/>
<feColorMatrix type="matrix" values="0 0 0 0 0 0 0 0 0 0 0 0 0 0 0 0 0 0 0.8 0"/>
<feBlend mode="normal" in2="BackgroundImageFix" result="effect1_dropShadow_27_3"/>
<feBlend mode="normal" in="SourceGraphic" in2="effect1_dropShadow_27_3" result="shape"/>
</filter>
<linearGradient id="paint0_linear_27_3" x1="451.98" y1="165.4" x2="451.98" y2="293.8" gradientUnits="userSpaceOnUse">
<stop stop-color="#7DC1FF"/>
<stop offset="1" stop-color="white"/>
</linearGradient>
<linearGradient id="paint1_linear_27_3" x1="451.98" y1="165.4" x2="451.98" y2="293.8" gradientUnits="userSpaceOnUse">
<stop stop-color="#7DC1FF"/>
<stop offset="1" stop-color="white"/>
</linearGradient>
<linearGradient id="paint2_linear_27_3" x1="451.98" y1="165.4" x2="451.98" y2="293.8" gradientUnits="userSpaceOnUse">
<stop stop-color="#7DC1FF"/>
<stop offset="1" stop-color="white"/>
</linearGradient>
<linearGradient id="paint3_linear_27_3" x1="451.98" y1="165.4" x2="451.98" y2="293.8" gradientUnits="userSpaceOnUse">
<stop stop-color="#7DC1FF"/>
<stop offset="1" stop-color="white"/>
</linearGradient>
<linearGradient id="paint4_linear_27_3" x1="451.98" y1="165.4" x2="451.98" y2="293.8" gradientUnits="userSpaceOnUse">
<stop stop-color="#7DC1FF"/>
<stop offset="1" stop-color="white"/>
</linearGradient>
<linearGradient id="paint5_linear_27_3" x1="451.98" y1="165.4" x2="451.98" y2="293.8" gradientUnits="userSpaceOnUse">
<stop stop-color="#7DC1FF"/>
<stop offset="1" stop-color="white"/>
</linearGradient>
<linearGradient id="paint6_linear_27_3" x1="451.98" y1="165.4" x2="451.98" y2="293.8" gradientUnits="userSpaceOnUse">
<stop stop-color="#7DC1FF"/>
<stop offset="1" stop-color="white"/>
</linearGradient>
<linearGradient id="paint7_linear_27_3" x1="451.98" y1="165.4" x2="451.98" y2="293.8" gradientUnits="userSpaceOnUse">
<stop stop-color="#7DC1FF"/>
<stop offset="1" stop-color="white"/>
</linearGradient>
<linearGradient id="paint8_linear_27_3" x1="451.98" y1="165.4" x2="451.98" y2="293.8" gradientUnits="userSpaceOnUse">
<stop stop-color="#7DC1FF"/>
<stop offset="1" stop-color="white"/>
</linearGradient>
<linearGradient id="paint9_linear_27_3" x1="452" y1="125.4" x2="452" y2="151.4" gradientUnits="userSpaceOnUse">
<stop stop-color="#7DC1FF"/>
<stop offset="1" stop-color="white"/>
</linearGradient>
<linearGradient id="paint10_linear_27_3" x1="453.5" y1="2" x2="453.5" y2="111" gradientUnits="userSpaceOnUse">
<stop stop-color="#7DC1FF"/>
<stop offset="1" stop-color="white"/>
</linearGradient>
<linearGradient id="paint11_linear_27_3" x1="453.5" y1="2" x2="453.5" y2="111" gradientUnits="userSpaceOnUse">
<stop stop-color="#7DC1FF"/>
<stop offset="1" stop-color="white"/>
</linearGradient>
<linearGradient id="paint12_linear_27_3" x1="453.5" y1="2" x2="453.5" y2="111" gradientUnits="userSpaceOnUse">
<stop stop-color="#7DC1FF"/>
<stop offset="1" stop-color="white"/>
</linearGradient>
<linearGradient id="paint13_linear_27_3" x1="453.5" y1="2" x2="453.5" y2="111" gradientUnits="userSpaceOnUse">
<stop stop-color="#7DC1FF"/>
<stop offset="1" stop-color="white"/>
</linearGradient>
<linearGradient id="paint14_linear_27_3" x1="453.5" y1="2" x2="453.5" y2="111" gradientUnits="userSpaceOnUse">
<stop stop-color="#7DC1FF"/>
<stop offset="1" stop-color="white"/>
</linearGradient>
<linearGradient id="paint15_linear_27_3" x1="453.5" y1="2" x2="453.5" y2="111" gradientUnits="userSpaceOnUse">
<stop stop-color="#7DC1FF"/>
<stop offset="1" stop-color="white"/>
</linearGradient>
<linearGradient id="paint16_linear_27_3" x1="453.5" y1="2" x2="453.5" y2="111" gradientUnits="userSpaceOnUse">
<stop stop-color="#7DC1FF"/>
<stop offset="1" stop-color="white"/>
</linearGradient>
<linearGradient id="paint17_linear_27_3" x1="453.5" y1="2" x2="453.5" y2="111" gradientUnits="userSpaceOnUse">
<stop stop-color="#7DC1FF"/>
<stop offset="1" stop-color="white"/>
</linearGradient>
<linearGradient id="paint18_linear_27_3" x1="453.5" y1="2" x2="453.5" y2="111" gradientUnits="userSpaceOnUse">
<stop stop-color="#7DC1FF"/>
<stop offset="1" stop-color="white"/>
</linearGradient>
</defs>
</svg>
